<?xml version="1.0" standalone="no"?><!-- Generator: Gravit.io --><svg xmlns="http://www.w3.org/2000/svg" xmlns:xlink="http://www.w3.org/1999/xlink" style="isolation:isolate" viewBox="0 0 112 112" width="112" height="112"><defs><clipPath id="_clipPath_dPHnI30d7ubqhvsNjbkZDQ0OBU5bLOTW"><rect width="112" height="112"/></clipPath></defs><g clip-path="url(#_clipPath_dPHnI30d7ubqhvsNjbkZDQ0OBU5bLOTW)"><path d=" M 1 46.506 L 17.384 36.99 L 53.241 57.685 L 36.856 67.203 L 1 46.506 Z  M 54.475 101 L 18.623 80.304 L 18.623 59.538 L 36.238 69.705 C 36.432 69.817 36.644 69.874 36.857 69.874 C 37.074 69.874 37.285 69.817 37.481 69.703 L 54.483 59.827 L 54.475 101 Z  M 92.8 80.304 L 56.95 101 L 56.964 59.835 L 73.958 69.702 C 74.339 69.927 74.814 69.927 75.196 69.704 L 92.8 59.545 L 92.8 80.304 L 92.8 80.304 Z  M 110.431 46.503 L 74.583 67.203 L 58.193 57.684 L 94.043 36.984" fill="rgb(0,0,0)"/><g><path d=" M 77.527 28.264 C 78.566 25.692 79.053 24.686 80.135 22.979 C 86.242 13.323 100.737 12.491 100.737 12.491 C 82.807 5.868 67.555 23.458 67.555 23.458 L 59.532 19.603 L 63.345 45.83 L 86.2 32.432 L 77.527 28.264 Z " fill="rgb(0,0,0)"/></g><g><path d=" M 35.459 28.264 C 34.421 25.692 33.932 24.686 32.853 22.979 C 26.746 13.323 12.25 12.492 12.25 12.492 C 30.179 5.868 45.433 23.459 45.433 23.459 L 53.454 19.605 L 49.644 45.831 L 26.788 32.431 L 35.459 28.264 Z " fill="rgb(0,0,0)"/></g></g></svg>